HIERARCHY
ROOT Hips
{
  OFFSET 1.44925e-005 102.336 -0.101585
  CHANNELS 6 Xposition Yposition Zposition Zrotation Xrotation Yrotation
  JOINT LeftUpLeg
  {
    OFFSET 8.9458 -8.66707 0.101652
    CHANNELS 3 Zrotation Xrotation Yrotation
    JOINT LeftLeg
    {
      OFFSET 0 -44.4227 1.3727
      CHANNELS 3 Zrotation Xrotation Yrotation
      JOINT LeftFoot
      {
        OFFSET -0.253549 -42.0924 -1.46059
        CHANNELS 3 Zrotation Xrotation Yrotation
        JOINT LeftToes
        {
          OFFSET -0.04 -4.41509 8.4991
          CHANNELS 3 Zrotation Xrotation Yrotation
          End Site
          {
            OFFSET 0.08 -0.047448 9.77979
          }
        }
      }
    }
  }
  JOINT Spine
  {
    OFFSET 0 11.8905 0
    CHANNELS 3 Zrotation Xrotation Yrotation
    JOINT Spine1
    {
      OFFSET 0 25.6574 0.127663
      CHANNELS 3 Zrotation Xrotation Yrotation
      JOINT RightShoulder
      {
        OFFSET -8.99 -0.362252 -0.22
        CHANNELS 3 Zrotation Xrotation Yrotation
        JOINT RightArm
        {
          OFFSET -10.2827 -0.00338 0.322123
          CHANNELS 3 Zrotation Xrotation Yrotation
          JOINT RightForeArm
          {
            OFFSET -26.364 0.099144 -1.42434
            CHANNELS 3 Zrotation Xrotation Yrotation
            JOINT RightHand
            {
              OFFSET -22.0324 0.085362 1.02216
              CHANNELS 3 Zrotation Xrotation Yrotation
              End Site
              {
                OFFSET -13.3284 -0.6 1.50291
              }
            }
          }
        }
      }
      JOINT LeftShoulder1
      {
        OFFSET 8.99 -0.362252 -0.22
        CHANNELS 3 Zrotation Xrotation Yrotation
        JOINT LeftArm
        {
          OFFSET 10.2827 -0.00337999 0.322123
          CHANNELS 3 Zrotation Xrotation Yrotation
          JOINT LeftForeArm
          {
            OFFSET 26.2597 0.099144 -1.42434
            CHANNELS 3 Zrotation Xrotation Yrotation
            JOINT LeftHand
            {
              OFFSET 22.0902 0.085362 1.02216
              CHANNELS 3 Zrotation Xrotation Yrotation
              End Site
              {
                OFFSET 13.419 -0.6 1.50291
              }
            }
          }
        }
      }
      JOINT Head
      {
        OFFSET 0 8.73416 0.011341
        CHANNELS 3 Zrotation Xrotation Yrotation
        End Site
        {
          OFFSET -0.29 12.7742 2.51395
        }
      }
    }
  }
  JOINT RightUpLeg
  {
    OFFSET -8.9458 -8.66707 0.101652
    CHANNELS 3 Zrotation Xrotation Yrotation
    JOINT RightLeg
    {
      OFFSET 0 -44.4227 1.3727
      CHANNELS 3 Zrotation Xrotation Yrotation
      JOINT RightFoot
      {
        OFFSET 0.253549 -42.0924 -1.46059
        CHANNELS 3 Zrotation Xrotation Yrotation
        JOINT RightToes
        {
          OFFSET 0.04 -4.41509 8.4991
          CHANNELS 3 Zrotation Xrotation Yrotation
          End Site
          {
            OFFSET -0.08 -0.137448 9.77979
          }
        }
      }
    }
  }
}
MOTION
Frames:	15
Frame Time:	0.0333333
191.572 103.137 2.77032 -5.10767 -0.2774 -91.2642 -2.26485 3.60855 1.95921 -0.396884 7.02027 20.1909 -0.898945 -10.4595 0.0274897 -1.28258e-009 8.75246e-006 -1.47123e-008 0.5912 6.64335 0.117346 -1.8902 0.0183365 0.549312 37.4476 1.74756 0.018542 41.2156 -16.8039 5.16081 7.44462 36.3456 9.70955 -10.5364 9.35376 1.05623 -45.6666 3.56488 -3.28659 -25.4065 -8.71987 -0.00218628 -5.93024 33.5657 -13.8369 5.82328 9.61819 -0.917488 1.76698 -3.23958 -6.08419 -0.941782 2.67006 -4.66158 0.639977 10.015 -13.6573 2.3549 -12.1936 -0.0993854 0.0462048 0.000530889 0.662642 
191.585 103.137 2.77763 -5.09049 -0.277679 -91.2832 -2.26239 3.58369 1.95814 -0.411221 7.01981 20.2053 -0.881493 -10.4547 0.0274893 -1.28258e-009 8.75246e-006 -1.47123e-008 0.643413 6.64279 0.107649 -1.98704 0.00295708 0.558408 37.5303 1.74756 0.0152582 41.1368 -16.7688 5.16083 7.41883 36.4516 9.72978 -10.4875 9.3471 1.17152 -45.6054 3.56273 -3.28658 -25.4442 -8.7437 0.058966 -5.86788 33.5913 -13.8973 5.82328 9.61819 -0.917488 1.68907 -3.66377 -6.33806 -0.943991 2.64163 -4.64845 0.627417 10.0137 -13.6427 2.40639 -12.1934 -0.0993854 0.0462048 0.000530889 0.662642 
191.593 103.137 2.80001 -5.12136 -0.296127 -91.3294 -2.29459 3.64123 1.94952 -0.425136 6.96777 20.2532 -0.875118 -10.4349 0.0274876 -1.28258e-009 8.75246e-006 -1.47123e-008 0.748945 6.6497 0.0930427 -2.20968 0.0131294 0.588945 37.7482 1.74756 0.00779438 40.9289 -16.6375 5.13701 7.38064 36.5063 9.7901 -10.4048 9.33006 1.43703 -45.4631 3.55123 -3.28654 -25.5243 -8.66148 0.16204 -5.77766 33.5182 -14.0153 5.82328 9.61819 -0.917488 1.90542 -3.73786 -5.73027 -0.974959 2.66151 -4.65859 0.601819 10.0215 -13.5762 2.4601 -12.198 -0.0993871 0.0462048 0.000530889 0.662642 
191.59 103.137 2.83264 -5.24366 -0.343073 -91.4383 -2.38501 3.856 1.92386 -0.424977 6.81561 20.3914 -0.86724 -10.391 0.0274837 -1.28258e-009 8.75246e-006 -1.47123e-008 0.812241 6.69855 0.109602 -2.38632 0.0747394 0.646129 37.8821 1.74756 0.00332666 40.814 -16.5558 5.11529 7.40951 36.311 9.80615 -10.6452 9.31114 1.49553 -45.3664 3.54063 -3.2865 -25.5834 -8.91282 0.161062 -5.78968 33.8034 -13.9242 5.82328 9.61819 -0.917488 2.30755 -3.28775 -4.34967 -1.04332 2.74777 -4.70303 0.548644 10.0926 -13.413 2.47261 -12.2243 -0.099397 0.0462048 0.000530889 0.662642 
191.592 103.137 2.86075 -5.37312 -0.392786 -91.5486 -2.48376 4.08504 1.89244 -0.415534 6.63949 20.5513 -0.834974 -10.3452 0.0274797 -1.28258e-009 8.75246e-006 -1.47123e-008 0.786883 6.79387 0.145657 -2.38899 0.132873 0.690329 37.757 1.74756 0.00134561 40.9606 -16.6136 5.1047 7.47936 36.0109 9.76612 -11.1708 9.29909 1.27299 -45.3819 3.54292 -3.28651 -25.599 -9.61259 0.0373864 -5.91552 34.5356 -13.5878 5.82328 9.61819 -0.917488 2.49456 -3.14319 -3.43657 -1.1114 2.81055 -4.74693 0.488275 10.2204 -13.25 2.47916 -12.2645 -0.0994121 0.0462048 0.000530889 0.662642 
191.614 103.137 2.87339 -5.39694 -0.402471 -91.5345 -2.50628 4.11596 1.88129 -0.411612 6.59721 20.5596 -0.80173 -10.3323 0.0274786 -1.28258e-009 8.75246e-006 -1.47123e-008 0.749138 6.88176 0.144836 -2.31281 0.117503 0.676436 37.5256 1.74756 0.000530225 41.2078 -16.7243 5.0683 7.4578 36.0613 9.7673 -11.362 9.28465 1.31262 -45.4104 3.55041 -3.28654 -25.6193 -10.095 -0.0615636 -6.01052 35.0198 -13.3527 5.82328 9.61819 -0.917488 2.42093 -3.54026 -3.46849 -1.12374 2.79567 -4.74974 0.46957 10.2788 -13.2644 2.51018 -12.2771 -0.0994168 0.0462048 0.000530889 0.662642 
191.652 103.137 2.87626 -5.32208 -0.371109 -91.4081 -2.45074 3.94408 1.89362 -0.416644 6.7227 20.4093 -0.805102 -10.3487 0.02748 -1.28258e-009 8.75246e-006 -1.47123e-008 0.771302 6.89812 0.0979275 -2.31367 0.0590259 0.624465 37.4545 1.74766 0.000543548 41.29 -16.8347 5.01132 7.33155 36.5955 9.81279 -10.992 9.25738 1.87763 -45.3547 3.54724 -3.28652 -25.6706 -9.90502 -0.0522135 -5.98399 34.8153 -13.4376 5.82328 9.61819 -0.917488 2.36352 -4.08738 -3.84917 -1.08363 2.73846 -4.71574 0.499265 10.2102 -13.4414 2.5348 -12.2399 -0.0994028 0.0462048 0.000530889 0.662642 
191.691 103.137 2.88331 -5.24916 -0.346513 -91.3286 -2.41 3.7671 1.89711 -0.41915 6.86498 20.309 -0.830953 -10.3558 0.0274806 -1.28258e-009 8.75246e-006 -1.47123e-008 0.802375 6.85479 0.0636723 -2.36917 0.0351687 0.595169 37.5303 1.74794 0.00123518 41.225 -17.0065 4.98996 7.26715 37.1 9.77601 -10.7035 9.23768 2.32318 -45.2762 3.536 -3.28648 -25.7139 -9.43447 0.000307134 -5.90723 34.3416 -13.653 5.82328 9.61819 -0.917488 2.43373 -4.4358 -4.0544 -1.05779 2.6743 -4.6872 0.527609 10.1437 -13.5595 2.5263 -12.1924 -0.099385 0.0462048 0.000530889 0.662642 
191.719 103.137 2.89689 -5.23089 -0.358106 -91.3596 -2.43545 3.71622 1.87523 -0.414699 6.89299 20.36 -0.826355 -10.3387 0.0274791 -1.28258e-009 8.75246e-006 -1.47123e-008 0.779172 6.86662 0.0737852 -2.37516 -0.00649418 0.603974 37.5247 1.74801 0.00333262 41.2402 -17.1862 4.97319 7.34021 37.0599 9.66083 -10.9715 9.2428 2.06248 -45.2664 3.5323 -3.28767 -25.7164 -9.10575 0.0699473 -5.83036 34.0342 -13.8243 5.82328 9.61819 -0.917488 2.51583 -4.73201 -4.18354 -1.07917 2.60942 -4.68466 0.519267 10.1873 -13.5228 2.52143 -12.1809 -0.0993807 0.0462048 0.000530889 0.662642 
191.731 103.137 2.90607 -5.23989 -0.377645 -91.3829 -2.46856 3.74022 1.85848 -0.413682 6.84903 20.4066 -0.778571 -10.3207 0.0274775 -1.28258e-009 8.75246e-006 -1.47123e-008 0.768246 7.03826 0.0841685 -2.38249 -0.218152 0.613388 37.4113 1.74796 0.000780127 41.3598 -17.1593 4.83517 7.40596 36.626 9.65952 -11.3523 9.26297 1.55711 -45.269 3.53559 -3.29269 -25.7186 -8.74437 0.229766 -5.71415 33.723 -14.0407 5.82328 9.61819 -0.917488 2.55948 -5.04484 -4.43453 -1.1003 2.58268 -4.68531 0.495383 10.2372 -13.4877 2.55539 -12.1881 -0.0993834 0.0462048 0.000530889 0.662642 
191.735 103.136 2.90628 -5.25531 -0.367904 -91.3211 -2.44916 3.759 1.87544 -0.421654 6.83553 20.3279 -0.740157 -10.3211 0.0274776 -1.28258e-009 8.75246e-006 -1.47123e-008 0.867404 7.32889 0.053055 -2.52915 -0.602859 0.605211 37.4294 1.74784 -0.0141229 41.3518 -16.8999 4.57851 7.36983 36.3053 9.80968 -11.3122 9.27366 1.46726 -45.1648 3.52795 -3.29308 -25.7784 -8.24308 0.457659 -5.58972 33.2811 -14.3018 5.82328 9.61819 -0.917488 2.62112 -5.30827 -4.78592 -1.07688 2.63471 -4.66881 0.487523 10.1721 -13.567 2.60242 -12.17 -0.0993766 0.0462048 0.000530889 0.662642 
191.751 103.133 2.90813 -5.28544 -0.338049 -91.2696 -2.40853 3.76822 1.90484 -0.427602 6.86021 20.2475 -0.750472 -10.332 0.0274785 -1.28258e-009 8.75246e-006 -1.47123e-008 1.02459 7.56251 0.010615 -2.76829 -0.919596 0.603854 37.6739 1.74769 -0.0289872 41.123 -16.7001 4.40904 7.31726 36.3172 9.90832 -11.0317 9.28046 1.58043 -44.9923 3.50604 -3.27586 -25.8575 -8.01001 0.573517 -5.5836 33.0713 -14.3661 5.82328 9.61819 -0.917488 2.63503 -5.5957 -5.11965 -1.0349 2.70443 -4.64202 0.486237 10.0872 -13.6492 2.62862 -12.136 -0.0993639 0.0462048 0.000530889 0.662642 
191.791 103.13 2.92133 -5.31445 -0.31686 -91.3209 -2.40193 3.77077 1.91016 -0.42366 6.87283 20.3048 -0.771863 -10.339 0.0274791 -1.28258e-009 8.75246e-006 -1.47123e-008 1.0818 7.59577 0.0150339 -2.86343 -0.927791 0.627529 37.8798 1.74754 -0.0310086 40.9197 -16.7547 4.47714 7.29947 36.5411 9.87436 -10.8378 9.30571 1.42193 -44.948 3.49294 -3.25696 -25.8389 -8.26301 0.459775 -5.7288 33.2917 -14.143 5.82328 9.61819 -0.917488 2.5324 -6.04367 -5.32611 -1.01645 2.68456 -4.61287 0.466298 10.1292 -13.623 2.64099 -12.1282 -0.099361 0.0462048 0.000530889 0.662642 
191.838 103.129 2.94032 -5.31199 -0.31061 -91.409 -2.42191 3.7419 1.89128 -0.41778 6.87049 20.4214 -0.752896 -10.3366 0.0274789 -1.28258e-009 8.75246e-006 -1.47123e-008 0.977654 7.45022 0.0679568 -2.69323 -0.651356 0.653776 37.7875 1.74745 -0.0240617 40.9895 -16.8623 4.68689 7.24259 36.7667 9.87635 -10.5918 9.33964 1.18932 -45.1358 3.50603 -3.2551 -25.6756 -8.57639 0.218244 -5.9033 33.5474 -13.8784 5.82328 9.61819 -0.917488 2.42292 -6.43526 -5.48339 -1.01984 2.59055 -4.58682 0.437987 10.2312 -13.556 2.64752 -12.1363 -0.099364 0.0462048 0.000530889 0.662642 
191.872 103.131 2.95358 -5.28988 -0.311665 -91.4282 -2.43442 3.69164 1.86923 -0.416269 6.88119 20.4571 -0.719186 -10.3223 0.0274777 -1.28258e-009 8.75246e-006 -1.47123e-008 0.79695 7.2674 0.110788 -2.40358 -0.333625 0.645354 37.5308 1.74744 -0.0186626 41.2171 -16.7926 4.87562 7.17555 36.8312 9.95625 -10.2204 9.35497 1.26345 -45.4023 3.53111 -3.26491 -25.4754 -8.54731 0.0501793 -5.99066 33.4564 -13.8051 5.82328 9.61819 -0.917488 2.41897 -6.72616 -5.91119 -1.03094 2.54153 -4.58866 0.438731 10.231 -13.5369 2.63255 -12.1108 -0.0993545 0.0462048 0.000530889 0.662642 
